<?xml version="1.0" encoding="iso-8859-1"?>
<!-- Generator: Adobe Illustrator 18.0.0, SVG Export Plug-In . SVG Version: 6.00 Build 0)  -->
<!DOCTYPE svg PUBLIC "-//W3C//DTD SVG 1.1//EN" "http://www.w3.org/Graphics/SVG/1.1/DTD/svg11.dtd">
<svg version="1.1" id="Capa_1" xmlns="http://www.w3.org/2000/svg" xmlns:xlink="http://www.w3.org/1999/xlink" x="0px" y="0px"
	 viewBox="0 0 395.797 395.797" style="enable-background:new 0 0 395.797 395.797;" xml:space="preserve">
<g>
	<path d="M311.488,54.22c-2.391-0.561-4.906,0.086-6.732,1.732c-1.824,1.644-2.728,4.081-2.418,6.519
		c2.014,15.838,1.435,37.684-3.799,46.58c-2.953-10.973-6.824-29.615-3.781-43.519c0.67-3.064-0.637-6.22-3.273-7.914
		c-2.639-1.693-6.051-1.57-8.559,0.314c-1.381,1.036-33.152,25.688-17.238,80.51c-2.016,6.829-1.793,14.417,0.678,22.686
		c-1.576,3.484-8.053,13.52-32.256,21.217c-0.957-4.367-2.012-8.706-3.182-13.01c6.42-3.68,10.762-10.586,10.762-18.499
		c0-11.063-8.469-20.179-19.264-21.219c4.936-5.291,11.404-13.468,17.139-24.735c9.91-19.466,19.559-52.443,9.256-99.001
		c-0.895-4.044-4.896-6.593-8.943-5.702c-4.045,0.896-6.598,4.899-5.703,8.944c7.424,33.542,4.865,63.223-7.604,88.217
		c-5.121,10.265-10.959,17.591-15.188,22.116c-4.205-7.783-7.201-11.973-7.395-12.241c-0.008-0.009-0.016-0.017-0.021-0.025
		c-1.592-2.257-6.727-7.429-12.142,0.025c-0.193,0.268-3.189,4.464-7.389,12.237c-4.23-4.523-10.064-11.837-15.191-22.112
		c-12.47-24.994-15.028-54.675-7.605-88.217c0.896-4.045-1.657-8.049-5.701-8.944c-4.045-0.892-8.049,1.658-8.943,5.702
		c-10.305,46.558-0.654,79.535,9.254,99.001c5.738,11.271,12.205,19.446,17.139,24.735c-10.795,1.04-19.264,10.155-19.264,21.219
		c0,7.918,4.348,14.827,10.771,18.505c-1.172,4.303-2.225,8.641-3.18,13.007c-24.227-7.7-30.694-17.741-32.266-21.222
		c2.467-8.241,2.689-15.83,0.672-22.667c15.924-54.833-15.854-79.49-17.234-80.526c-2.507-1.885-5.92-2.008-8.558-0.314
		c-2.638,1.694-3.944,4.85-3.273,7.914c3.042,13.901-0.829,32.539-3.782,43.518c-5.234-8.897-5.811-30.74-3.797-46.574
		c0.312-2.438-0.591-4.876-2.416-6.522c-1.826-1.646-4.342-2.293-6.736-1.732c-25.027,5.867-40.558,29.674-39.971,63.669
		c0.645,37.278,20.26,56.58,24.521,60.54c11.215,11.106,39.078,35.122,77.492,43.509l-27.047-1.468
		c-1.369-0.07-2.728,0.228-3.936,0.871l-28.76,15.338c-0.734,0.393-1.398,0.903-1.965,1.514l-12.826,13.806
		c-2.819,3.034-2.645,7.78,0.39,10.599c1.444,1.343,3.276,2.006,5.104,2.006c2.012,0,4.019-0.805,5.496-2.396l11.97-12.884
		l25.805-13.762l34.68,1.882c-0.057,3.039-0.063,6.091-0.025,9.152l-30.406-1.338c-1.421-0.067-2.836,0.282-4.072,0.993
		l-22.932,13.204c-0.949,0.547-1.767,1.296-2.396,2.192L85.334,276.06c-2.379,3.391-1.559,8.068,1.832,10.447
		c1.311,0.92,2.813,1.361,4.301,1.361c2.361-0.001,4.687-1.113,6.146-3.193l9.155-13.051l19.599-11.284l29.432,1.295
		c0.146,2.417,0.32,4.84,0.525,7.269l-21.434-0.704c-1.465-0.054-2.919,0.336-4.17,1.105l-15.98,9.81
		c-1.033,0.635-1.899,1.511-2.519,2.553l-7.59,12.737c-2.12,3.558-0.954,8.161,2.604,10.282c1.204,0.717,2.526,1.058,3.832,1.058
		c2.556,0,5.047-1.307,6.45-3.662l6.645-11.15l12.486-7.666l21.299,0.699c0.258,1.951,0.514,3.901,0.807,5.858
		c0.235,1.575,0.471,3.087,0.705,4.571l-10.319,1.746c-1.702,0.288-3.253,1.154-4.39,2.452l-10.919,12.463
		c-0.5,0.57-0.911,1.214-1.218,1.908l-4.828,10.913c-1.676,3.788,0.037,8.217,3.824,9.893c0.986,0.436,2.017,0.643,3.031,0.643
		c2.877,0,5.623-1.666,6.862-4.468l4.364-9.866l8.406-9.595l7.825-1.324c1.77,8.633,3.628,15.163,5.755,20.223l-11.525,32.271
		c-3.625,10.15,1.686,21.358,11.836,24.984c4.417,1.575,9.043,1.466,13.162-0.014c3.465,5.508,9.596,9.172,16.562,9.172h0.07
		c6.951-0.025,13.053-3.694,16.5-9.169c4.117,1.483,8.754,1.594,13.19,0.011c4.918-1.757,8.857-5.323,11.094-10.042
		c2.234-4.719,2.498-10.026,0.742-14.943l-11.523-32.27c2.127-5.06,3.982-11.59,5.754-20.223l7.824,1.324l8.406,9.595l4.365,9.866
		c1.238,2.802,3.984,4.468,6.861,4.468c1.014,0,2.045-0.207,3.031-0.643c3.787-1.676,5.5-6.104,3.824-9.893l-4.828-10.913
		c-0.307-0.694-0.717-1.337-1.217-1.908l-10.918-12.463c-1.139-1.298-2.688-2.164-4.391-2.452l-10.32-1.746
		c0.236-1.484,0.471-2.996,0.707-4.571c0.293-1.956,0.563-3.909,0.818-5.858l21.285-0.699l12.486,7.666l6.645,11.15
		c1.404,2.355,3.895,3.662,6.451,3.662c1.305,0,2.627-0.341,3.832-1.058c3.557-2.121,4.723-6.725,2.603-10.282l-7.59-12.737
		c-0.621-1.042-1.486-1.918-2.52-2.553l-15.98-9.81c-1.252-0.769-2.709-1.159-4.17-1.105l-21.41,0.703
		c0.203-2.43,0.371-4.851,0.518-7.269l29.418-1.294l19.598,11.284l9.156,13.051c1.459,2.08,3.783,3.193,6.147,3.193
		c1.486,0,2.99-0.442,4.301-1.361c3.391-2.379,4.211-7.057,1.832-10.447l-10.113-14.412c-0.629-0.897-1.447-1.646-2.397-2.191
		l-22.93-13.204c-1.236-0.713-2.648-1.064-4.072-0.994l-30.395,1.337c0.037-3.061,0.027-6.112-0.029-9.152l34.67-1.881
		l25.805,13.762l11.971,12.885c1.479,1.59,3.484,2.395,5.496,2.395c1.828,0,3.66-0.664,5.104-2.006
		c3.035-2.819,3.209-7.564,0.391-10.6l-12.828-13.806c-0.566-0.609-1.23-1.12-1.965-1.513l-28.76-15.338
		c-1.207-0.645-2.572-0.942-3.935-0.871l-27.047,1.468c72.172-24.039,87.199-54.732,89.133-57.859
		c8.307-13.45,12.881-29.854,12.881-46.189C351.459,83.889,336.518,60.087,311.488,54.22z M116.378,89.393
		c2.733,8.01,4.249,18.647,2.171,32.16c-2.602-2.102-5.296-3.75-7.776-5.027C112.602,110.24,115.129,100.236,116.378,89.393z
		 M59.354,117.889c-0.605-21.018,6.654-36.903,18.252-44.672c-0.194,4.594-0.252,10.039,0.072,15.639
		c1.264,21.794,7.726,34.679,19.211,38.294c0.186,0.059,11.787,2.269,17.387,12.044c2.924,5.102,2.918,11.689,0.249,19.375
		c-0.062,0.172-6.477,17.168-18.284,17.168C95.133,175.736,60.903,171.651,59.354,117.889z M157.266,208.691
		c-20.039-2.988-37.461-11.178-51.064-19.817c6.793-2.64,11.902-7.708,15.521-12.624c6.135,6.852,17.211,14.846,37.174,20.924
		C158.278,200.992,157.729,204.83,157.266,208.691z M196.77,150.835c0-4.991-1.736-9.576-4.619-13.213
		c2.076-4.53,4.043-8.38,5.759-11.53c1.715,3.148,3.682,7.011,5.758,11.539c-2.889,3.631-4.625,8.212-4.625,13.204
		c0,10.264,7.289,18.853,16.963,20.872c0.273,0.984,0.564,1.964,0.828,2.952h-37.808c0.264-0.987,0.525-1.975,0.8-2.958
		C189.49,169.676,196.77,161.092,196.77,150.835z M197.275,302.039c-7.15,0-14.193,0.459-21.023,1.365
		c-0.891-4.614-1.773-9.859-2.664-15.802c-0.076-0.512-0.137-1.021-0.21-1.532c7.638-1.305,15.645-1.971,23.901-1.971
		c8.709,0,17.127,0.742,25.125,2.188c-0.063,0.439-0.113,0.875-0.18,1.315c-0.9,6.015-1.793,11.314-2.695,15.968
		C212.318,302.553,204.863,302.039,197.275,302.039z M216.025,318.242c-1.428,4.66-2.918,8.008-4.524,10.228
		c-2.42,3.349-4.834,4.071-13.596,4.071c-8.76,0-11.174-0.723-13.594-4.071c-1.622-2.245-3.128-5.64-4.571-10.382
		c5.703-0.691,11.57-1.049,17.535-1.049C203.67,317.039,209.945,317.449,216.025,318.242z M197.279,269.1
		c-8.837,0-17.448,0.69-25.697,2.056c-0.563-5.866-0.939-11.692-1.15-17.483c8.496-1.659,17.488-2.513,26.83-2.513
		c9.686,0,19.281,0.964,28.121,2.777c-0.219,5.773-0.596,11.582-1.16,17.431C215.6,269.861,206.572,269.1,197.279,269.1z
		 M197.262,236.159c-9.321,0-18.353,0.782-26.984,2.294c0.279-16.648,2.03-32.944,5.244-48.813c0.125,0.006,0.248,0.019,0.374,0.019
		h44.022c0.141,0,0.277-0.013,0.416-0.021c3.229,15.935,4.967,32.305,5.225,49.031C216.549,237.006,207.07,236.159,197.262,236.159z
		 M175.446,144.512c3.488,0,6.324,2.837,6.324,6.323c0,3.486-2.836,6.323-6.324,6.323c-3.486,0-6.322-2.837-6.322-6.323
		C169.123,147.349,171.959,144.512,175.446,144.512z M225.185,370.176c-0.52,1.098-1.438,1.928-2.582,2.337
		c-2.279,0.811-4.791-0.306-5.717-2.549c-1.363-3.302-4.867-5.188-8.373-4.5c-3.508,0.686-6.043,3.75-6.061,7.323l-0.018,3.444
		c0.006,1.215-0.463,2.359-1.32,3.222c-0.855,0.862-1.996,1.339-3.211,1.344h-0.016c-2.501,0-4.54-2.03-4.55-4.532l-0.012-3.386
		c-0.012-3.565-2.531-6.628-6.027-7.328c-3.494-0.694-7,1.158-8.385,4.443c-0.935,2.221-3.443,3.323-5.705,2.519
		c-2.362-0.844-3.598-3.453-2.755-5.814l8.264-23.138c6.239,3.976,13.243,3.981,19.188,3.981c5.945,0,12.949-0.005,19.189-3.981
		l8.264,23.138C225.767,367.843,225.705,369.077,225.185,370.176z M220.365,157.158c-3.486,0-6.322-2.837-6.322-6.323
		c0-3.486,2.836-6.323,6.322-6.323c3.488,0,6.324,2.837,6.324,6.323C226.689,154.321,223.853,157.158,220.365,157.158z
		 M279.426,89.312c1.244,10.876,3.781,20.913,5.613,27.214c-2.48,1.278-5.176,2.929-7.779,5.031
		C275.158,107.982,276.682,97.323,279.426,89.312z M238.557,208.69c-0.461-3.862-1.01-7.701-1.627-11.52
		c19.955-6.078,31.014-14.07,37.15-20.92c3.621,4.924,8.75,10,15.568,12.639C276.064,197.519,258.652,205.699,238.557,208.69z
		 M299.574,175.736c0,0,0,0-0.002,0c-11.865-0.001-18.228-17.02-18.26-17.101c-2.68-7.717-2.619-14.233,0.184-19.368
		c4.902-8.982,17.242-12.06,17.428-12.117c11.484-3.616,17.949-16.5,19.211-38.295c0.324-5.6,0.268-11.044,0.072-15.639
		c11.598,7.768,18.252,23.646,18.252,44.672C336.459,147.462,320.244,175.033,299.574,175.736z"/>
</g>
<g>
</g>
<g>
</g>
<g>
</g>
<g>
</g>
<g>
</g>
<g>
</g>
<g>
</g>
<g>
</g>
<g>
</g>
<g>
</g>
<g>
</g>
<g>
</g>
<g>
</g>
<g>
</g>
<g>
</g>
</svg>
